<svg width="16" height="16" xmlns="http://www.w3.org/2000/svg" viewbox="0 0 16 16"><g fill="none" fill-rule="evenodd"><path d="M0 2.002A2 2 0 0 1 2.002 0h11.996A2 2 0 0 1 16 2.002v11.996A2 2 0 0 1 13.998 16H2.002A2 2 0 0 1 0 13.998V2.002z" fill="#6554C0"/><path d="M8 12.5a4.5 4.5 0 1 0 0-9 4.5 4.5 0 0 0 0 9zM8 14A6 6 0 1 1 8 2a6 6 0 0 1 0 12z" fill="#FFF" fill-rule="nonzero"/><path d="M7 8.69l2.72-2.72a.75.75 0 0 1 1.06 1.06l-3.25 3.25a.75.75 0 0 1-1.06 0l-1.5-1.5a.75.75 0 0 1 1.06-1.06l.97.97z" fill="#FFF" fill-rule="nonzero"/></g></svg>